<?xml version="1.0" encoding="UTF-8" standalone="no"?>
<!-- Created with Inkscape (http://www.inkscape.org/) -->

<svg
   version="1.1"
   id="svg2"
   xml:space="preserve"
   width="278.93466"
   height="46.467468"
   viewBox="0 0 278.93466 46.467468"
   sodipodi:docname="Vector Smart Object.ai"
   xmlns:inkscape="http://www.inkscape.org/namespaces/inkscape"
   xmlns:sodipodi="http://sodipodi.sourceforge.net/DTD/sodipodi-0.dtd"
   xmlns="http://www.w3.org/2000/svg"
   xmlns:svg="http://www.w3.org/2000/svg"><defs
     id="defs6"><clipPath
       clipPathUnits="userSpaceOnUse"
       id="clipPath16"><path
         d="M 0,34.851 H 209.201 V 0 H 0 Z"
         id="path14" /></clipPath></defs><sodipodi:namedview
     id="namedview4"
     pagecolor="#ffffff"
     bordercolor="#666666"
     borderopacity="1.0"
     inkscape:pageshadow="2"
     inkscape:pageopacity="0.0"
     inkscape:pagecheckerboard="0" /><g
     id="g8"
     inkscape:groupmode="layer"
     inkscape:label="Vector Smart Object"
     transform="matrix(1.3333333,0,0,-1.3333333,0,46.467467)"><g
       id="g10"><g
         id="g12"
         clip-path="url(#clipPath16)"><g
           id="g18"
           transform="translate(0,0.4492)"><path
             d="M 0,0 V 34.301 H 0.549 L 16.776,15.328 32.854,34.301 h 0.548 V 0 H 28.36 v 17.625 l 0.2,4.893 C 27.461,20.82 26.445,19.455 25.514,18.424 L 16.976,8.139 h -0.6 L 7.839,18.424 4.843,22.518 c 0.133,-1.997 0.2,-3.628 0.2,-4.893 L 5.043,0 Z"
             style="fill:#1a1a1a;fill-opacity:1;fill-rule:nonzero;stroke:none"
             id="path20" /></g><g
           id="g22"
           transform="translate(79.7861,13.7305)"><path
             d="m 0,0 h 2.995 c 6.291,0 9.438,2.663 9.438,7.989 0,5.358 -3.147,8.038 -9.438,8.038 H 0 Z m 11.034,-2.796 7.19,-10.485 H 12.133 L 6.042,-4.344 C 4.776,-4.478 3.827,-4.543 3.195,-4.543 H 0 v -8.738 H -5.292 V 20.67 h 8.487 c 4.659,0 8.263,-1.131 10.81,-3.395 2.547,-2.264 3.82,-5.359 3.82,-9.286 0,-5.193 -2.264,-8.788 -6.791,-10.785"
             style="fill:#1a1a1a;fill-opacity:1;fill-rule:nonzero;stroke:none"
             id="path24" /></g><g
           id="g26"
           transform="translate(120.5781)"><path
             d="m 0,0 c -4.893,0 -9.021,1.647 -12.383,4.943 -3.361,3.295 -5.043,7.455 -5.043,12.482 0,4.993 1.682,9.137 5.043,12.432 3.362,3.296 7.49,4.943 12.383,4.943 6.059,0 10.586,-2.246 13.582,-6.74 L 9.537,25.164 C 7.439,28.426 4.262,30.057 0,30.057 c -3.495,0 -6.375,-1.198 -8.638,-3.595 -2.264,-2.396 -3.395,-5.409 -3.395,-9.037 0,-3.628 1.131,-6.649 3.395,-9.062 2.263,-2.414 5.143,-3.62 8.638,-3.62 4.295,0 7.639,1.78 10.037,5.342 L 14.08,7.24 C 10.918,2.413 6.225,0 0,0"
             style="fill:#fe3e57;fill-opacity:1;fill-rule:nonzero;stroke:none"
             id="path28" /></g><g
           id="g30"
           transform="translate(140.6484,0.4492)"><path
             d="M 0,0 V 33.952 H 5.293 V 18.678 h 16.326 v 15.274 h 5.293 V 0 H 21.619 V 13.984 H 5.293 L 5.293,0 Z"
             style="fill:#fe3e57;fill-opacity:1;fill-rule:nonzero;stroke:none"
             id="path32" /></g><g
           id="g34"
           transform="translate(183.0117,8.3628)"><path
             d="m 0,0 c 2.281,-2.414 5.186,-3.62 8.713,-3.62 3.529,0 6.425,1.206 8.688,3.62 2.264,2.413 3.396,5.434 3.396,9.063 0,3.627 -1.132,6.647 -3.396,9.062 -2.263,2.413 -5.159,3.619 -8.688,3.619 C 5.186,21.744 2.281,20.538 0,18.125 -2.279,15.71 -3.42,12.69 -3.42,9.063 -3.42,5.434 -2.279,2.413 0,0 m 8.713,-8.363 c -4.926,0 -9.078,1.648 -12.457,4.943 -3.379,3.295 -5.069,7.456 -5.069,12.483 0,5.025 1.69,9.187 5.069,12.481 3.379,3.296 7.531,4.944 12.457,4.944 4.894,0 9.029,-1.648 12.408,-4.944 3.378,-3.294 5.068,-7.456 5.068,-12.481 0,-5.027 -1.69,-9.188 -5.068,-12.483 -3.379,-3.295 -7.514,-4.943 -12.408,-4.943"
             style="fill:#fe3e57;fill-opacity:1;fill-rule:nonzero;stroke:none"
             id="path36" /></g><g
           id="g38"
           transform="translate(54.0723,34.7505)"><path
             d="m 0,0 h -0.599 l -14.529,-34.301 h 5.092 l 9.638,24.864 9.785,-24.864 h 5.492 z"
             style="fill:#1a1a1a;fill-opacity:1;fill-rule:nonzero;stroke:none"
             id="path40" /></g></g></g></g></svg>
